<?xml version="1.0" encoding="UTF-8"?>
<!DOCTYPE svg PUBLIC "-//W3C//DTD SVG 1.1//EN" "http://www.w3.org/Graphics/SVG/1.1/DTD/svg11.dtd">
<!-- Creator: CorelDRAW X5 -->
<svg xmlns="http://www.w3.org/2000/svg" xml:space="preserve" width="2048px" height="2048px" style="shape-rendering:geometricPrecision; text-rendering:geometricPrecision; image-rendering:optimizeQuality; fill-rule:evenodd; clip-rule:evenodd"
viewBox="0 0 2048 2048"
 xmlns:xlink="http://www.w3.org/1999/xlink">
 <defs>
  <style type="text/css">
   <![CDATA[
    .fil6 {fill:none}
    .fil3 {fill:#D50000}
    .fil2 {fill:#689F38;fill-rule:nonzero}
    .fil1 {fill:#8BC34A;fill-rule:nonzero}
    .fil5 {fill:#92B043;fill-rule:nonzero}
    .fil4 {fill:#FBD435;fill-rule:nonzero}
    .fil0 {fill:#FFEB3B;fill-rule:nonzero}
   ]]>
  </style>
 </defs>
 <g id="Layer_x0020_1">
  <metadata id="CorelCorpID_0Corel-Layer"/>
  <g id="_353383192">
   <path class="fil0" d="M1024 1211c-103,0 -187,-84 -187,-187 0,-103 84,-187 187,-187 103,0 187,84 187,187 0,103 -84,187 -187,187z"/>
   <path class="fil1" d="M742 256l1018 0 32 0 0 32 0 1472 0 32 -32 0 -1472 0 -32 0 0 -32 0 -1017 253 0c-20,71 10,181 77,220 31,18 95,42 166,61 -71,19 -136,44 -166,61 -79,46 -107,147 -61,227 46,79 147,107 227,61 31,-18 84,-61 136,-113 -19,71 -30,139 -30,175 0,92 74,166 166,166 92,0 166,-74 166,-166 0,-35 -11,-104 -30,-175 52,52 106,95 136,113 79,46 181,19 227,-61 46,-79 19,-181 -61,-227 -31,-18 -95,-42 -166,-61 71,-19 135,-44 166,-61 79,-46 107,-147 61,-227 -46,-79 -147,-106 -227,-61 -31,18 -84,61 -136,113 19,-71 30,-139 30,-174 0,-92 -74,-166 -166,-166 -92,0 -166,74 -166,166 0,35 11,104 30,175 -41,-40 -116,-76 -146,-98l0 -434z"/>
   <polygon class="fil2" points="711,743 256,743 743,256 743,711 743,743 "/>
   <path class="fil3" d="M837 1024c0,-103 84,-187 187,-187 103,0 187,84 187,187 0,103 -84,187 -187,187 -103,0 -187,-84 -187,-187zm686 288c46,-79 19,-181 -61,-227 -31,-18 -95,-42 -166,-61 71,-19 135,-44 166,-61 79,-46 107,-147 61,-227 -46,-79 -147,-106 -227,-61 -31,18 -84,61 -136,113 19,-71 30,-139 30,-174 0,-92 -74,-166 -166,-166 -92,0 -166,74 -166,166 0,35 11,104 30,175 -40,-40 -114,-75 -145,-97l0 20 0 32 -32 0 -202 0c-20,71 10,181 77,220 31,18 95,42 166,61 -71,19 -136,44 -166,61 -79,46 -107,147 -61,227 46,79 147,107 227,61 31,-18 84,-61 136,-113 -19,71 -30,139 -30,175 0,92 74,166 166,166 92,0 166,-74 166,-166 0,-35 -11,-104 -30,-175 52,52 106,95 136,113 79,46 181,19 227,-61z"/>
  </g>
  <g id="_353382616">
   <path class="fil4" d="M1024 837c103,0 187,84 187,187 0,103 -84,187 -187,187l0 -374z"/>
   <path class="fil5" d="M1024 256l736 0 32 0 0 32 0 1472 0 32 -32 0 -736 0 0 -192 0 0c92,0 166,-74 166,-166 0,-35 -11,-104 -30,-175 52,52 106,95 136,113 79,46 181,19 227,-61 46,-79 19,-181 -61,-227 -31,-18 -95,-42 -166,-61 71,-19 135,-44 166,-61 79,-46 107,-147 61,-227 -46,-79 -147,-106 -227,-61 -31,18 -84,61 -136,113 19,-71 30,-139 30,-174 0,-92 -74,-166 -166,-166l0 0 0 -192z"/>
   <path class="fil3" d="M1024 837c103,0 187,84 187,187 0,103 -84,187 -187,187l0 389 0 0c92,0 166,-74 166,-166 0,-35 -11,-104 -30,-175 52,52 106,95 136,113 79,46 181,19 227,-61 46,-79 19,-181 -61,-227 -31,-18 -95,-42 -166,-61 71,-19 135,-44 166,-61 79,-46 107,-147 61,-227 -46,-79 -147,-106 -227,-61 -31,18 -84,61 -136,113 19,-71 30,-139 30,-174 0,-92 -74,-166 -166,-166l0 0 0 389z"/>
  </g>
  <rect class="fil6" width="2048" height="2048"/>
 </g>
</svg>
